{"title":"Puss in Boots 2011 TS XviD - MiSTERE","uid":6781335,"size":1738911995,"categoryP":"video","categoryS":"movies","magnet":"?xt=urn:btih:39c2fe303835fe31224e131a82cb1ce561f67df7&amp;dn=Puss+in+Boots+2011+TS+XviD+-+MiSTERE&amp;tr=udp%3A%2F%2Ftracker.openbittorrent.com%3A80&amp;tr=udp%3A%2F%2Fopen.demonii.com%3A1337&amp;tr=udp%3A%2F%2Ftracker.coppersurfer.tk%3A6969&amp;tr=udp%3A%2F%2Fexodus.desync.com%3A6969","seeders":1,"leechers":0,"uploader":"SAFCukO09","files":5,"time":1319913817,"description":"Puss in Boots 2011 TS XviD - MiSTERE\n &lt;a href=&quot;\nhttp://www.imdb.com/title/tt0448694/&quot; rel=&quot;nofollow&quot; target=&quot;_NEW&quot;&gt;\nhttp://www.imdb.com/title/tt0448694/&lt;/a&gt;\n\nVideo\nID : 0\nFormat : MPEG-4 Visual\nFormat profile : Advanced Simple@L5\nFormat settings, BVOP : 2\nFormat settings, QPel : No\nFormat settings, GMC : No warppoints\nFormat settings, Matrix : Default (H.263)\nMuxing mode : Packed bitstream\nCodec ID : XVID\nCodec ID/Hint : XviD\nDuration : 1h 20mn\nBit rate : 2 706 Kbps\nWidth : 720 pixels\nHeight : 304 pixels\nDisplay aspect ratio : 2.35:1\nFrame rate : 25.000 fps\nColor space : YUV\nChroma subsampling : 4:2:0\nBit depth : 8 bits\nScan type : Progressive\nCompression mode : Lossy\nBits/(Pixel*Frame) : 0.494\nStream size : 1.53 GiB (95%)\nWriting library : XviD 64\n\nAudio\nID : 1\nFormat : MPEG Audio\nFormat version : Version 1\nFormat profile : Layer 3\nMode : Joint stereo\nMode extension : MS Stereo\nCodec ID : 55\nCodec ID/Hint : MP3\nDuration : 1h 20mn\nBit rate mode : Constant\nBit rate : 128 Kbps\nChannel(s) : 2 channels\nSampling rate : 44.1 KHz\nCompression mode : Lossy\nStream size : 74.0 MiB (5%)\nAlignment : Split accross interleaves\nInterleave, duration : 40 ms (1.00 video frame)\n\n\n\nThanks to RELiZLABS for the source files\nSharpened Resized and tweaked RGB","torrent":{"xt":"urn:btih:39c2fe303835fe31224e131a82cb1ce561f67df7","amp;dn":"Puss+in+Boots+2011+TS+XviD+-+MiSTERE","amp;tr":["udp%3A%2F%2Ftracker.openbittorrent.com%3A80","udp%3A%2F%2Fopen.demonii.com%3A1337","udp%3A%2F%2Ftracker.coppersurfer.tk%3A6969","udp%3A%2F%2Fexodus.desync.com%3A6969"],"infoHash":"39c2fe303835fe31224e131a82cb1ce561f67df7","infoHashBuffer":{"type":"Buffer","data":[57,194,254,48,56,53,254,49,34,78,19,26,130,203,28,229,97,246,125,247]},"announce":[],"urlList":[]}}